<?xml version="1.0" encoding="UTF-8"?>
<svg width="40" height="40" viewBox="0 0 40 40" fill="none" xmlns="http://www.w3.org/2000/svg">
  <!-- Q shape -->
  <path d="M20 2C10.059 2 2 10.059 2 20C2 29.941 10.059 38 20 38C29.941 38 38 29.941 38 20C38 10.059 29.941 2 20 2ZM20 34C12.268 34 6 27.732 6 20C6 12.268 12.268 6 20 6C27.732 6 34 12.268 34 20C34 27.732 27.732 34 20 34Z" fill="url(#paint0_linear)"/>
  
  <!-- Diagonal line -->
  <path d="M28 28L34 34" stroke="url(#paint1_linear)" stroke-width="3" stroke-linecap="round"/>
  
  <!-- Gradient definitions -->
  <defs>
    <linearGradient id="paint0_linear" x1="2" y1="2" x2="38" y2="38" gradientUnits="userSpaceOnUse">
      <stop offset="0%" stop-color="#3B82F6"/>
      <stop offset="100%" stop-color="#60A5FA"/>
    </linearGradient>
    <linearGradient id="paint1_linear" x1="28" y1="28" x2="34" y2="34" gradientUnits="userSpaceOnUse">
      <stop offset="0%" stop-color="#3B82F6"/>
      <stop offset="100%" stop-color="#60A5FA"/>
    </linearGradient>
  </defs>
</svg>
